<?xml version="1.0" encoding="UTF-8" standalone="no"?>
<!-- Generator: Adobe Illustrator 25.0.1, SVG Export Plug-In . SVG Version: 6.00 Build 0)  -->

<svg
   version="1.0"
   id="katman_1"
   x="0px"
   y="0px"
   viewBox="0 0 195.6 56.999997"
   xml:space="preserve"
   sodipodi:docname="CoinGecko.svg"
   inkscape:version="1.1.1 (3bf5ae0d25, 2021-09-20)"
   width="195.60001"
   height="57"
   xmlns:inkscape="http://www.inkscape.org/namespaces/inkscape"
   xmlns:sodipodi="http://sodipodi.sourceforge.net/DTD/sodipodi-0.dtd"
   xmlns="http://www.w3.org/2000/svg"
   xmlns:svg="http://www.w3.org/2000/svg"><defs
   id="defs31">
	
	
	
	
	
	
	
	
	
	
	
</defs><sodipodi:namedview
   id="namedview29"
   pagecolor="#ffffff"
   bordercolor="#999999"
   borderopacity="1"
   inkscape:pageshadow="0"
   inkscape:pageopacity="0"
   inkscape:pagecheckerboard="0"
   showgrid="false"
   inkscape:zoom="1.212938"
   inkscape:cx="136.44556"
   inkscape:cy="19.374445"
   inkscape:window-width="1366"
   inkscape:window-height="697"
   inkscape:window-x="-8"
   inkscape:window-y="-8"
   inkscape:window-maximized="1"
   inkscape:current-layer="katman_1"
   width="195.60001px" />
<style
   type="text/css"
   id="style2">
	.st0{fill-rule:evenodd;clip-rule:evenodd;fill:#AAADC0;}
	.st1{fill-rule:evenodd;clip-rule:evenodd;fill:#A9ACBF;}
	.st2{fill-rule:evenodd;clip-rule:evenodd;fill:#DADEEF;}
	.st3{fill-rule:evenodd;clip-rule:evenodd;fill:#FCFDFB;}
	.st4{fill-rule:evenodd;clip-rule:evenodd;fill:#7E8295;}
	.st5{fill-rule:evenodd;clip-rule:evenodd;fill:#FFFEFC;}
	.st6{fill-rule:evenodd;clip-rule:evenodd;fill:#8D90A3;}
</style>
<g
   id="g1164"
   transform="matrix(0.64172534,0,0,0.68139367,12.68948,10.428211)"><path
     class="st0"
     d="m 29.502173,1.34432 c 15.304918,0 27.64992,12.130787 27.64992,27.241048 0,14.897454 -12.489389,27.170106 -27.866499,27.099171 C 14.413835,55.542659 1.9244454,43.482822 1.9244454,28.514429 1.9244454,13.475107 14.197256,1.2733791 29.502173,1.34432 Z M 8.4940091,42.702468 c 0,0.28377 0.144385,0.425639 0.288772,0.638464 1.0828955,1.489753 2.3101759,2.90856 3.7540359,4.114532 0.649738,0.56753 1.299474,1.135059 2.021404,1.631633 2.021404,1.276927 4.115002,2.48291 6.425178,3.263253 1.877017,0.638464 3.826229,1.135048 5.77544,1.347863 1.516053,0.14188 3.1043,0.212825 4.620352,0 0.866317,-0.14188 1.804826,-0.14188 2.671141,-0.496584 0.144387,0.071 0.216579,-0.071 0.288773,-0.071 1.804825,-0.28376 3.537457,-0.851279 5.270089,-1.560687 5.631053,-2.411966 9.89044,-6.313694 12.633775,-11.705144 C 54.697533,35.111803 55.491655,30.07505 54.697533,24.82548 53.975598,19.788727 51.809811,15.390427 48.344547,11.701533 43.724195,6.5228929 37.804369,3.827163 30.801647,3.4015207 27.697348,3.1886991 24.593048,3.6143413 21.633136,4.6075055 16.796205,6.1681916 12.825589,8.8639226 9.5769036,12.765637 5.89506,17.234875 4.0902365,22.34257 3.8736559,28.017784 c -0.07219,1.418802 0.072201,2.766665 0.288772,4.185458 0.4331581,3.192313 1.5160546,6.242742 3.1764931,9.009423 0.4331581,0.425639 0.7219301,0.993168 1.1550881,1.489732 z"
     id="path4"
     style="stroke-width:0.715638" /><path
     class="st1"
     d="m 34.050332,53.130694 c -0.866315,0.425639 -1.804824,0.425639 -2.671141,0.496584 -1.516052,0.212815 -3.104299,0.14187 -4.620352,0 -1.949211,-0.212825 -3.898423,-0.709398 -5.77544,-1.347862 -2.310176,-0.780344 -4.403774,-1.986327 -6.425178,-3.263254 -0.72193,-0.496584 -1.371666,-1.064103 -2.021404,-1.631632 -1.44386,-1.205983 -2.6711404,-2.62479 -3.7540359,-4.114543 -0.144387,-0.212814 -0.288772,-0.425629 -0.288772,-0.638453 1.7326319,-3.830783 2.3823699,-7.874372 2.7433349,-11.988895 0.144385,-1.915384 0.216579,-3.830769 0.577543,-5.746157 0.360966,-2.199141 1.227281,-4.185472 2.815528,-5.888031 1.44386,-1.489748 3.248684,-2.482912 5.197895,-3.192314 1.588247,-0.638463 3.248685,-1.205986 5.053511,-1.276926 1.660439,-0.07093 3.248686,0.141881 4.836932,0.496583 2.382369,0.567521 4.764738,1.276925 7.002721,2.341028 1.804825,0.709405 3.681843,1.418803 5.558861,1.986324 1.949211,0.567526 3.898423,1.205986 5.558862,2.411963 2.093593,1.560689 2.671143,3.547012 1.732633,5.958978 -0.57755,1.489741 -1.66044,2.624778 -2.743335,3.759828 -1.949212,1.986324 -4.042809,3.830768 -5.919827,5.888042 -2.16579,2.482907 -4.115001,5.036752 -5.486669,8.016246 -1.155088,2.482921 -1.804823,5.036766 -1.371667,7.732491 z M 47.983583,29.791349 c -0.0722,0 -0.144386,0 -0.21658,0.07096 -0.07219,0 -0.144386,0.07095 -0.144386,0.141877 0,0 0,0 0,0.07096 0.0722,0 0.144386,-0.07096 0.144386,-0.141878 l 0.21658,-0.141876 c 0.07219,0 0.144386,0 0,0 0.07219,-0.07096 0,0 0,0 z M 25.892523,17.447763 c -2.743334,0 -4.981317,2.199148 -4.981317,4.823936 0,2.69573 2.237983,4.823928 4.909125,4.894867 2.743334,0 4.909124,-2.199137 4.981316,-4.894867 0,-2.695727 -2.16579,-4.823936 -4.909124,-4.823936 0,0 0,0 0,0 z m 4.042808,14.897434 c 0.433159,0.638469 1.227282,1.20598 2.165791,1.489741 1.877018,0.63846 3.754035,0.63846 5.631053,0.283756 3.320879,-0.638455 6.425179,-1.773497 9.240705,-3.617934 0.144387,-0.141895 0.433159,-0.141895 0.505352,-0.425647 -0.144386,-0.07096 -0.216579,0 -0.288772,0.07095 -0.938509,0.567526 -1.949213,0.99317 -2.959914,1.418803 -2.598948,1.064108 -5.342283,1.773506 -8.230002,1.915384 -2.093597,0.141887 -4.187195,0 -6.064213,-1.135041 z m 13.644478,-4.185468 c 0.577545,0 1.082895,-0.496581 1.082895,-1.135041 0,-0.567517 -0.50535,-1.064108 -1.155089,-0.993169 -0.577544,0 -1.010701,0.496591 -1.010701,1.064108 0,0.63846 0.433157,1.064102 1.082895,1.064102 z"
     id="path6"
     style="stroke-width:0.715638" /><path
     class="st2"
     d="m 29.646559,15.035794 c -1.588246,-0.283761 -3.176491,-0.567522 -4.836931,-0.496583 -1.804825,0.07094 -3.393071,0.638463 -5.053511,1.276926 -1.94921,0.709402 -3.754035,1.702566 -5.197896,3.192314 -1.588246,1.63162 -2.454562,3.617951 -2.815527,5.888031 -0.288771,1.915388 -0.360965,3.830773 -0.577543,5.746157 -0.360966,4.114523 -1.010703,8.229056 -2.7433354,11.988895 C 7.9164651,42.205894 7.627692,41.567431 7.338921,41.070846 5.6784825,38.304173 4.595586,35.253744 4.1624279,32.061432 3.9458495,30.642639 3.8014624,29.294776 3.8736559,27.875964 4.0902365,22.20076 5.89506,17.093062 9.5769036,12.623824 12.753397,8.7221093 16.796205,6.0263793 21.633136,4.4656922 c 2.959912,-0.9222233 6.064212,-1.3478645 9.168511,-1.2059848 6.930528,0.4256422 12.850355,3.1923121 17.5429,8.2290726 3.465264,3.759835 5.558865,8.158131 6.352986,13.123946 0.794122,5.24957 0,10.286323 -2.454564,15.039313 -2.743335,5.39146 -7.002722,9.293178 -12.633775,11.705143 -1.660439,0.709409 -3.393071,1.276928 -5.270089,1.560698 -0.144386,0 -0.21658,0.212814 -0.288773,0.071 -0.433156,-2.695725 0.216579,-5.249581 1.299476,-7.732491 1.371666,-2.979495 3.320877,-5.53334 5.486667,-8.016247 1.804825,-2.057274 3.898423,-3.972658 5.919827,-5.888042 1.155088,-1.13505 2.165791,-2.270088 2.743332,-3.759829 1.010706,-2.411965 0.433156,-4.398285 -1.732631,-5.958978 -1.660438,-1.205976 -3.609649,-1.844436 -5.558862,-2.411962 -1.877017,-0.567548 -3.754035,-1.276949 -5.55886,-1.986351 -0.360965,-1.205986 -1.227282,-1.986328 -2.38237,-2.41197 -1.516052,-0.354702 -3.032105,-0.212822 -4.620352,0.21282 z m 23.607112,15.110258 h 0.144391 c 0.288772,-0.993163 0.288772,-2.057262 0.288772,-3.121364 0,-1.205986 -0.14439,-2.411962 -0.360967,-3.617951 C 52.531743,19.505024 50.726919,16.099898 47.91139,13.191347 46.178758,11.41784 44.229546,9.928094 42.280335,8.3674069 40.547703,6.9486026 38.670685,5.8844986 36.504895,5.3169756 34.411298,4.8203945 32.389893,4.5366331 30.224103,4.8913344 c -0.144386,0 -0.288772,0 -0.288772,0.1418807 0,0.1418798 0.144386,0.1418798 0.288772,0.1418798 3.176492,0.5675229 6.208598,1.5606871 9.168513,2.6957309 2.887719,1.1350449 5.342282,2.7666712 7.147108,5.3205212 1.227279,1.773507 2.382369,3.617954 3.32088,5.604278 1.227276,2.695731 2.165787,5.462397 2.743328,8.300002 0.288774,1.135041 0.505352,2.057262 0.649739,3.050425 z"
     id="path8"
     style="stroke-width:0.715638" /><path
     class="st3"
     d="m 25.892523,17.447763 c 2.743334,0 4.909124,2.199148 4.909124,4.823936 0,0 0,0 0,0 0,2.69573 -2.237982,4.823928 -4.981316,4.894867 -2.743336,0 -4.909125,-2.199137 -4.909125,-4.894867 0,-2.695727 2.237983,-4.823936 4.981317,-4.823936 0,0 0,0 0,0 z m 3.465264,4.894875 c 0,-1.915384 -1.516052,-3.405126 -3.465264,-3.405126 -1.949211,0 -3.465263,1.489742 -3.465263,3.405126 0,1.844445 1.516052,3.405125 3.393071,3.405125 0,0 0.07219,0 0.07219,0 1.877019,0 3.393072,-1.489741 3.465264,-3.405125 0,0 0,0 0,0 z"
     id="path10"
     style="stroke-width:0.715638" /><path
     class="st4"
     d="m 29.935331,32.345197 c 1.877018,1.135042 3.970616,1.276928 6.064213,1.20598 2.887719,-0.141878 5.631054,-0.780337 8.230002,-1.915384 1.010701,-0.425634 2.021405,-0.851276 2.959914,-1.418805 0.07219,-0.07096 0.144386,-0.141875 0.288772,-0.07096 -0.0722,0.212813 -0.288772,0.283761 -0.505352,0.425648 -2.815526,1.844439 -5.919826,2.97948 -9.240705,3.617937 -1.877018,0.354703 -3.826228,0.354703 -5.631053,-0.283757 -0.938509,-0.3547 -1.804825,-0.92222 -2.165791,-1.560689 z M 29.646559,15.035794 c 1.516054,-0.425643 3.1043,-0.567522 4.620352,0 1.155088,0.425641 2.021405,1.205985 2.38237,2.411969 -2.16579,-1.135044 -4.548159,-1.844448 -7.002722,-2.411969 z"
     id="path12"
     style="stroke-width:0.715638" /><path
     class="st3"
     d="m 43.579809,28.159729 c -0.577544,0 -1.082895,-0.496581 -1.082895,-1.064102 0,-0.567517 0.433157,-1.064108 1.010701,-1.064108 0.577545,0 1.082896,0.425652 1.155089,0.993169 -0.0722,0.63846 -0.50535,1.135041 -1.082895,1.135041 z"
     id="path14"
     style="stroke-width:0.715638" /><path
     class="st1"
     d="m 47.767003,29.933235 c 0,0.07096 -0.07219,0.141878 -0.144386,0.141878 0,0 0,0 0,0 0,-0.141878 0.0722,-0.212817 0.144386,-0.141878 z m 0.21658,-0.141886 -0.21658,0.141886 -0.07219,-0.07096 c 0.144386,-0.07095 0.216579,-0.07095 0.288771,-0.07095 0,0 0,0 0,0 z"
     id="path16"
     style="stroke-width:0.715638" /><path
     class="st1"
     d="m 47.983583,29.791349 v 0 c 0.144386,0 0.07219,0 0,0 0,0 0,0 0,0 z"
     id="path18"
     style="stroke-width:0.715638" /><path
     class="st5"
     d="M 53.253671,30.146052 C 53.037089,29.152889 52.82051,28.230668 52.676127,27.237504 52.098586,24.32897 51.08788,21.562291 49.93279,18.937512 49.066476,16.951181 47.91139,15.106734 46.611915,13.333227 44.807091,10.779377 42.424722,9.1477515 39.464807,8.0127066 36.432701,6.8776617 33.472789,5.8135587 30.296297,5.3169756 c -0.144386,0 -0.288773,0 -0.288773,-0.1418807 0,-0.1418798 0.144387,-0.1418798 0.288773,-0.1418798 2.093596,-0.3547023 4.187194,-0.1418807 6.28079,0.4256412 2.165791,0.567523 4.042808,1.7025669 5.775441,3.0504313 1.949211,1.5606874 3.898423,3.0504324 5.631055,4.8239394 2.815523,2.908552 4.620349,6.313684 5.414479,10.215387 0.216577,1.205989 0.360959,2.411966 0.360959,3.617952 0,0.993163 0,2.057262 -0.288763,3.121361 z"
     id="path20"
     style="stroke-width:0.715638" /><path
     class="st4"
     d="m 29.357785,22.342638 c 0,1.844445 -1.516052,3.405125 -3.393072,3.405125 0,0 -0.0722,0 -0.0722,0 -1.877017,0 -3.465263,-1.489741 -3.465263,-3.405125 0,0 0,-0.07096 0,-0.07096 0,-1.915385 1.588246,-3.405135 3.465263,-3.405135 1.877019,0 3.465265,1.560689 3.465265,3.476073 z"
     id="path22"
     style="stroke-width:0.715638" /></g>
<g
   id="g1177"
   transform="matrix(0.83593084,0,0,0.85164675,3.447012,3.3970821)"><path
     class="st6"
     d="m 147.38558,39.342793 c -0.0768,0.07879 -0.1535,0.07879 -0.23024,0.157558 -2.37925,2.757248 -5.37251,3.229919 -8.59601,2.363355 -3.99098,-1.024122 -6.14,-3.938922 -6.98423,-7.956616 -0.53724,-2.599687 -0.38376,-5.199371 0.61399,-7.641497 1.76525,-4.332811 5.75625,-6.696165 10.2845,-6.065937 2.07225,0.315114 3.991,1.02412 5.44925,2.599689 1.07448,1.181675 1.68849,2.599685 1.91873,4.175251 0.0768,0.315113 -0.0768,0.393894 -0.30698,0.393894 -0.921,0 -1.91877,0 -2.83976,0 -0.23024,0 -0.307,-0.07879 -0.38375,-0.315115 -0.46049,-2.127013 -1.842,-3.308691 -3.83749,-3.702579 -2.3025,-0.472671 -4.298,0 -5.83299,1.890678 -1.38151,1.733122 -1.76527,3.860138 -1.76527,6.065929 0,1.654346 0.30702,3.229912 0.99777,4.647921 1.61174,3.151134 5.60274,4.254033 8.59598,2.44213 1.6885,-1.024116 2.22575,-2.67846 2.37925,-4.569141 0,-0.393893 -0.23026,-0.315115 -0.4605,-0.315115 -1.535,0 -2.99324,0 -4.52825,0 -0.4605,0 -0.53724,-0.157557 -0.53724,-0.551449 0,-0.630224 0,-1.181674 0,-1.811899 0,-0.393893 0.1535,-0.472672 0.46049,-0.472672 2.60951,0 5.29575,0 7.90524,0 0.30702,0 0.46052,0.07879 0.46052,0.393895 0,3.466242 0,6.853711 0,10.319962 0,0.315114 -0.0768,0.393892 -0.38376,0.393892 -0.61401,0 -1.38151,0.157557 -1.84199,-0.07879 -0.46051,-0.315114 -0.30702,-1.102899 -0.46051,-1.733127 0,-0.236335 -0.0768,-0.47267 -0.0768,-0.630228 z M 86.599632,27.36849 c -0.460499,0 -0.920998,0 -1.458249,0 -0.307,0 -0.383749,-0.07879 -0.460498,-0.393894 -0.614001,-2.20579 -1.995498,-3.545022 -4.221249,-3.781358 -2.455995,-0.236336 -4.528244,0.551446 -5.756244,2.836019 -1.841999,3.466247 -1.765248,7.011271 0.07674,10.398739 1.227998,2.284573 3.914246,3.308691 6.370244,2.599683 2.148997,-0.630225 3.146747,-2.284569 3.607246,-4.411585 0.1535,-0.866561 0.1535,-0.866561 0.99775,-0.866561 0.767499,0 1.534999,0 2.302498,0 0.307,0 0.383749,0.07879 0.307,0.393893 -0.38375,4.175252 -2.993248,7.405166 -6.984245,8.035393 -5.756244,0.945343 -10.51474,-2.678468 -11.43574,-8.586843 -0.38375,-2.599683 -0.1535,-5.12059 0.84425,-7.562719 1.765248,-4.096475 5.679494,-6.302271 10.05424,-5.750823 2.07225,0.315114 3.990997,1.024119 5.525997,2.599691 1.074499,1.181672 1.688498,2.599683 1.918747,4.17525 0.07674,0.315115 0,0.393891 -0.306999,0.393891 -0.383749,-0.157557 -0.920999,-0.07879 -1.381499,-0.07879 z M 199.57553,41.706149 c -1.30475,0 -2.456,0 -3.68398,0 -0.307,0 -0.46051,-0.157557 -0.53725,-0.393893 -1.30476,-2.205798 -2.68626,-4.332811 -3.99102,-6.538605 -0.23023,-0.393893 -0.30698,-0.393893 -0.69074,-0.07879 -1.30474,0.945341 -1.84198,2.205794 -1.61175,3.86014 0.15351,0.86656 0,1.811903 0,2.757243 0,0.393894 -0.1535,0.472672 -0.46049,0.472672 -0.7675,0 -1.53501,0 -2.3025,0 -0.38376,0 -0.46052,-0.157558 -0.46052,-0.551449 0,-3.229916 0,-6.459827 0,-9.768518 0,-3.387466 0,-6.774935 0,-10.241184 0,-0.551448 0.15351,-0.709008 0.69077,-0.630228 0.69074,0.07879 1.38151,0.07879 2.07225,0 0.46049,0 0.53725,0.157555 0.53725,0.551449 0,3.545028 0,7.090052 0,10.635077 v 0.630227 l 0.15349,0.07879 c 0.23026,-0.315113 0.53725,-0.630226 0.7675,-0.94534 1.53501,-1.654347 3.07001,-3.229912 4.68175,-4.884259 0.15351,-0.157554 0.30699,-0.315111 0.53725,-0.315111 1.22799,0 2.45599,0 3.684,0 0,0.236337 -0.23025,0.315111 -0.30701,0.472669 -1.61175,1.575565 -3.14674,3.151134 -4.83524,4.726701 -0.38376,0.315114 -0.38376,0.551448 -0.0768,1.02412 1.84201,2.836019 3.68401,5.672037 5.52601,8.508061 0,0.236335 0.15348,0.393892 0.30699,0.630226 z m -37.91446,-6.77494 c -1.68848,0 -3.30025,0 -4.98875,0 -0.38375,0 -0.4605,0.07879 -0.4605,0.472671 0.15351,3.072355 2.91651,4.963034 5.67949,3.781356 0.7675,-0.315109 1.38151,-0.945339 1.68851,-1.811898 0.1535,-0.393893 0.38375,-0.472672 0.69074,-0.472672 0.69076,0 1.45826,0 2.14901,0 0.38374,0 0.46049,0.07879 0.30699,0.472672 -0.84425,2.757241 -2.68625,4.254032 -5.44924,4.647924 -2.456,0.393893 -4.75849,-0.157556 -6.52375,-2.04824 -1.22798,-1.33923 -1.76524,-3.072356 -1.91874,-4.884256 -0.15351,-2.205796 0.1535,-4.332809 1.535,-6.223488 1.76525,-2.363351 4.14449,-3.229912 6.90749,-2.757242 2.9165,0.551446 4.68175,2.442127 5.52599,5.278146 0.30701,1.024121 0.38376,2.048238 0.30701,3.151133 0,0.393894 -0.1535,0.47267 -0.46051,0.47267 -1.61175,-0.07879 -3.30025,-0.07879 -4.98874,-0.07879 z m -1.61175,-2.205793 c 1.15126,0 2.30251,0 3.377,0 0.38375,0 0.46051,-0.07879 0.38375,-0.472671 -0.307,-2.048238 -1.76525,-3.545026 -3.684,-3.623803 -1.99549,-0.07879 -3.60724,1.339231 -3.91425,3.466247 -0.0768,0.393892 0,0.551448 0.4605,0.551448 1.15125,0.07879 2.22575,0.07879 3.377,0.07879 z m -69.458686,1.339231 c 0,-0.94534 0.153493,-1.969458 0.383745,-2.914797 0.997746,-3.30869 3.837499,-5.356928 7.367997,-5.120593 2.686234,0.157557 4.911994,1.102896 6.216744,3.545026 1.53499,2.993577 1.53499,6.144711 -0.0768,9.059509 -1.45824,2.757243 -3.99098,3.623807 -6.907485,3.466248 -4.374749,-0.236334 -6.984243,-3.308692 -6.984242,-8.035393 z m 3.300246,0 c 0,1.339233 0.230251,2.520906 0.997748,3.623802 1.227999,1.811902 3.607241,2.363351 5.372492,1.102899 0.38375,-0.315113 0.76749,-0.630229 1.07451,-1.024121 1.30474,-1.969456 1.3815,-5.278146 0,-7.326384 -1.611759,-2.363348 -4.988753,-2.363348 -6.523752,0.07879 -0.690747,1.024117 -0.920998,2.284571 -0.920998,3.545025 z m 106.52892,0.07879 c 0,-2.205795 0.46049,-4.175254 1.91875,-5.829599 1.45824,-1.733121 3.45374,-2.363349 5.60274,-2.363349 2.149,0 4.14449,0.630228 5.67949,2.363349 1.61176,1.890679 1.9955,4.175252 1.84199,6.61738 -0.0768,0.866563 -0.23023,1.733123 -0.53725,2.520905 -1.15124,3.072359 -3.91425,4.805486 -7.44475,4.569149 -4.14449,-0.236334 -6.75398,-2.993582 -6.98423,-7.24761 0,-0.157558 -0.0768,-0.472669 -0.0768,-0.630225 z m 11.74273,0.157556 c 0,-1.575565 -0.38375,-2.914801 -0.92101,-3.860139 -1.15123,-1.890681 -3.60724,-2.363349 -5.37249,-1.181676 -0.46049,0.315116 -0.84426,0.709005 -1.15124,1.181676 -1.30476,1.969459 -1.22802,5.278148 0,7.168825 1.22799,1.811904 3.60724,2.363353 5.3725,1.102901 0.46049,-0.315115 0.76748,-0.630228 1.07449,-1.102901 0.76751,-1.024115 0.99775,-2.284568 0.99775,-3.308686 z m -93.78842,-5.750826 c 0.92099,-1.181672 1.9955,-2.048235 3.45375,-2.442126 1.30476,-0.315115 2.60948,-0.236335 3.83748,0.315115 1.842,0.78778 2.6095,2.442127 2.68626,4.411584 0.0768,3.466248 0,6.932492 0,10.398743 0,0.393891 -0.0768,0.47267 -0.46051,0.47267 -0.76748,0 -1.53499,0 -2.30248,0 -0.38376,0 -0.53728,-0.07879 -0.53728,-0.55145 0,-2.9148 0,-5.908376 0,-8.823173 0,-0.630229 -0.0768,-1.260453 -0.23023,-1.811903 -0.4605,-1.575567 -1.91875,-2.205794 -3.684,-1.733122 -1.53499,0.472669 -2.53275,1.890678 -2.53275,3.70258 0,2.83602 0,5.750818 0,8.586841 0,0.47267 -0.0768,0.709007 -0.614,0.630227 -0.69075,-0.07879 -1.45824,-0.07879 -2.14899,0 -0.38375,0 -0.53725,-0.07879 -0.53725,-0.55145 0,-2.205794 0,-4.332811 0,-6.538604 0,-2.520906 0,-5.041811 0,-7.562719 0,-0.551448 0.1535,-0.709004 0.69074,-0.630224 0.69075,0.07879 1.30475,0 1.9955,0 0.38376,0 0.53725,0.07879 0.46051,0.472667 -0.0768,0.551448 -0.0768,1.102898 -0.0768,1.654344 z m 62.93494,2.993578 c -0.0768,0 -0.15349,0 -0.23025,0 -0.84425,0.07879 -1.38149,0 -1.76525,-1.024118 -0.92099,-2.363347 -4.60499,-2.442128 -6.14,-0.236335 -0.53723,0.709005 -0.7675,1.575566 -0.92099,2.520907 -0.15349,1.496789 -0.15349,2.993576 0.46052,4.411587 0.76748,1.733123 2.14898,2.520907 3.91423,2.284569 1.45824,-0.236334 2.45601,-1.181673 2.83973,-2.836018 0.0768,-0.472671 0.30702,-0.630228 0.76751,-0.551451 0.76749,0 1.45825,0 2.22576,0 0.38374,0 0.46049,0.157558 0.38374,0.472673 -0.7675,3.78136 -3.37701,5.908379 -7.21449,5.672045 -3.83751,-0.236337 -6.37025,-2.836026 -6.67725,-6.85372 -0.15349,-1.733123 0,-3.466248 0.69076,-5.120592 1.15124,-2.757241 3.76075,-4.332808 6.83074,-4.175251 1.84201,0.07879 3.5305,0.551445 4.912,1.89068 0.84424,0.866562 1.30474,1.969457 1.53499,3.151133 0.0768,0.393891 -0.0768,0.551447 -0.46049,0.472668 -0.30701,-0.07879 -0.69075,-0.07879 -1.15126,-0.07879 z m -69.6122,2.599687 c 0,2.284568 0,4.569142 0,6.853714 0,0.630228 -0.15349,0.787787 -0.69075,0.709007 -0.69074,-0.07879 -1.30474,-0.07879 -1.99549,0 -0.4605,0 -0.614,-0.07879 -0.614,-0.630227 0,-4.096476 0,-8.192951 0,-12.289421 0,-0.630225 0,-1.260454 0,-1.890682 0,-0.393891 0.0768,-0.472667 0.46051,-0.472667 0.76749,0 1.535,0 2.3025,0 0.46048,0 0.614,0.07879 0.614,0.630224 -0.0768,2.363351 -0.0768,4.726699 -0.0768,7.090052 z m -1.53498,-13.54988 c 0.46049,0.07879 1.15125,-0.236333 1.45823,0.07879 0.30703,0.315114 0.0768,1.024119 0.0768,1.57557 0,0.47267 0.23028,1.102897 -0.0768,1.418009 -0.30698,0.315114 -0.92099,0.07879 -1.38149,0.07879 -0.614,0 -1.38149,0.236336 -1.76525,-0.07879 -0.307,-0.39389 -0.0768,-1.181675 -0.0768,-1.733123 0,-1.339234 0,-1.339234 1.30473,-1.339234 0,0 0.46052,0 0.46052,0 z"
     id="path24"
     style="stroke-width:0.777579" /><path
     style="opacity:1;fill:#999999;stroke:#00000d;stroke-width:0.00605735;stroke-linejoin:bevel"
     d="M 76.445417,41.632081 C 71.991955,40.164374 69.07716,34.269373 70.155596,28.91127 c 0.730555,-3.629735 2.439093,-6.05382 5.369444,-7.618198 2.01984,-1.078304 5.789728,-1.07432 8.149093,0.0087 1.665906,0.764643 3.377803,2.418354 3.852298,3.721375 0.808924,2.221348 0.836236,2.155938 -0.90034,2.155938 -1.53795,0 -1.620009,-0.04672 -2.227149,-1.268279 -1.158311,-2.330472 -3.22056,-3.277594 -6.063221,-2.78463 -4.332941,0.751389 -6.502416,7.88471 -3.895152,12.807427 1.081927,2.042766 2.052134,2.86359 3.884184,3.286103 2.884017,0.66512 5.548944,-0.962933 6.411123,-3.916676 0.377846,-1.294482 0.392587,-1.304359 1.947757,-1.304359 h 1.567032 l -0.220522,1.206552 c -0.455249,2.490834 -2.165998,4.810781 -4.437403,6.017565 -1.635205,0.868776 -5.143598,1.069717 -7.147323,0.409373 z"
     id="path903" /><path
     style="opacity:1;fill:#999999;stroke:#00000d;stroke-width:0.00605735;stroke-linejoin:bevel"
     d="m 96.868478,41.766754 c -3.482803,-0.461935 -5.532754,-2.630462 -6.01515,-6.363129 -0.638383,-4.939535 2.509988,-9.170357 6.839994,-9.191731 3.812188,-0.01882 6.446418,1.889289 7.437048,5.387015 0.64211,2.267165 0.44082,4.176984 -0.69102,6.556702 -1.34536,2.82854 -3.98359,4.086925 -7.570872,3.611143 z m 3.512812,-2.909977 c 1.42297,-0.90269 2.1565,-2.929409 1.97784,-5.464729 -0.37135,-5.269524 -5.835079,-6.676916 -8.128998,-2.093939 -0.538657,1.076161 -0.436219,4.537563 0.173311,5.855974 1.035238,2.239262 3.862546,3.044576 5.977847,1.702694 z"
     id="path942" /><path
     style="opacity:1;fill:#999999;stroke:#00000d;stroke-width:0.00605735;stroke-linejoin:bevel"
     d="m 108.50175,34.07977 0.085,-7.387893 1.50281,-0.09899 1.50279,-0.09897 v 7.486872 7.486872 h -1.58783 -1.58784 z"
     id="path981" /><path
     style="opacity:1;fill:#999999;stroke:#00000d;stroke-width:0.00605735;stroke-linejoin:bevel"
     d="m 108.48949,22.22667 0.0973,-1.380155 1.50282,-0.09898 1.50279,-0.09898 v 1.479137 1.479127 h -1.6001 -1.60008 z"
     id="path1020" /><path
     style="opacity:1;fill:#999999;stroke:#00000d;stroke-width:0.00605735;stroke-linejoin:bevel"
     d="m 115.38896,33.99858 v -7.469073 h 1.4237 1.42372 v 1.200306 1.200302 l 1.02823,-1.018016 c 1.25096,-1.23853 2.3867,-1.707492 4.13354,-1.70683 1.74901,6.75e-4 3.37231,0.878662 4.1369,2.237529 0.52262,0.928831 0.64228,1.904187 0.76356,6.224076 0.18566,6.612309 0.13956,6.800789 -1.66379,6.800789 h -1.39729 l -0.0995,-5.711836 -0.0995,-5.711826 -0.88767,-0.783018 c -0.53848,-0.47497 -1.28528,-0.782545 -1.89829,-0.781805 -1.30223,0.0016 -2.99706,1.066496 -3.39133,2.130902 -0.16967,0.458067 -0.3085,3.08841 -0.3085,5.845215 v 5.012368 h -1.5819 -1.5819 z"
     id="path1059" /><path
     style="opacity:1;fill:#999999;stroke:#00000d;stroke-width:0.00605735;stroke-linejoin:bevel"
     d="m 138.10509,41.509951 c -2.59455,-0.879689 -4.15579,-2.28445 -5.38327,-4.843727 -0.97593,-2.034817 -1.03914,-2.375085 -1.03678,-5.583496 0.004,-2.97455 0.1035,-3.626708 0.7834,-5.040334 0.94748,-1.970061 2.88239,-4.016544 4.59257,-4.857375 1.6095,-0.791338 4.50841,-1.019813 6.66222,-0.525074 2.84577,0.653688 5.21541,2.934353 5.71551,5.500885 l 0.19839,1.018164 -1.54236,-0.0032 c -1.49556,-0.0032 -1.55828,-0.04224 -2.06697,-1.285602 -1.33181,-3.255355 -6.38027,-3.84491 -9.19846,-1.074199 -1.32611,1.303753 -1.98301,3.431268 -1.98301,6.422393 0,4.762317 1.80717,7.391376 5.5801,8.117885 2.52965,0.487104 5.53161,-1.283735 6.22955,-3.674764 0.6723,-2.303262 0.67898,-2.296574 -2.39732,-2.400845 l -2.76833,-0.09383 V 32.050141 30.91354 l 4.19204,-0.09061 4.19203,-0.09061 v 5.530051 5.530045 h -0.72767 c -0.97244,0 -1.48699,-0.584338 -1.48699,-1.688662 0,-1.085609 -0.32297,-1.149567 -1.13739,-0.225236 -1.73658,1.970957 -5.35017,2.671354 -8.41726,1.631448 z"
     id="path1098" /><path
     style="opacity:1;fill:#999999;stroke:#00000d;stroke-width:0.00605735;stroke-linejoin:bevel"
     d="m 158.08094,41.668941 c -3.28569,-0.898185 -5.04784,-3.519326 -5.03578,-7.490566 0.007,-2.733423 0.66059,-4.42356 2.36171,-6.119339 1.47036,-1.465735 2.90853,-1.97025 5.08766,-1.784757 3.51941,0.29957 6.0873,3.060977 6.39566,6.877653 l 0.1375,1.702166 -5.41283,-0.144551 -5.41284,-0.14455 v 1.031889 c 0,3.888536 4.84645,5.547446 7.15007,2.447418 0.69915,-0.940867 1.03373,-1.123043 2.0625,-1.123043 0.67538,0 1.22798,0.07889 1.22798,0.175314 0,0.440836 -1.25921,2.641632 -1.79711,3.140915 -1.49203,1.384909 -4.55991,2.034107 -6.76452,1.431451 z m 5.8595,-8.94792 c 0.3684,-0.611841 -0.8457,-2.934025 -1.87556,-3.587336 -1.89585,-1.20267 -4.43591,-0.597683 -5.38294,1.282103 -0.78592,1.55998 -0.63274,2.22321 0.54832,2.373653 2.11272,0.269114 6.53409,0.224029 6.71018,-0.06845 z"
     id="path1137" /><path
     style="opacity:1;fill:#999999;stroke:#00000d;stroke-width:0.00605735;stroke-linejoin:bevel"
     d="m 173.48816,41.658882 c -2.84938,-1.083244 -4.29691,-3.56312 -4.30761,-7.379662 -0.008,-3.29944 1.03691,-5.494169 3.30469,-6.932846 1.3444,-0.852872 1.83261,-0.977632 3.78328,-0.966777 3.40235,0.01892 5.51146,1.446343 6.33939,4.29038 0.19867,0.68252 0.118,0.73067 -1.22422,0.73067 -1.28054,0 -1.49099,-0.107356 -1.9339,-0.986479 -1.53313,-3.043119 -6.2107,-2.115598 -7.1416,1.416113 -0.44782,1.699062 -0.19161,4.859064 0.47922,5.909929 0.77748,1.217964 1.95167,1.857392 3.37374,1.83725 1.64842,-0.02332 2.66813,-0.716957 3.17681,-2.16084 0.38624,-1.096414 0.46842,-1.144839 1.94297,-1.144839 1.44707,0 1.52723,0.04396 1.33284,0.730669 -0.45895,1.621088 -1.9296,3.614351 -3.14115,4.257347 -1.55997,0.8279 -4.36452,1.014928 -5.98446,0.399085 z"
     id="path1176" /><path
     style="opacity:1;fill:#999999;stroke:#00000d;stroke-width:0.00605735;stroke-linejoin:bevel"
     d="m 186.15266,41.575905 c -0.11598,-0.119066 -0.2109,-4.876438 -0.2109,-10.571923 V 20.648558 l 1.5028,0.09898 1.50282,0.09898 0.15818,5.933875 0.15819,5.933872 2.99937,-3.092378 2.99936,-3.092378 1.74634,0.0079 1.74634,0.0072 -2.62133,2.509268 c -1.44172,1.380097 -2.61628,2.729446 -2.61012,2.998553 0.006,0.269107 1.05468,2.095784 2.33008,4.059282 1.27537,1.963492 2.5731,3.971863 2.88379,4.46303 l 0.56493,0.893049 -1.85559,-0.01481 -1.85556,-0.01481 -2.15539,-3.557368 c -1.18544,-1.95655 -2.26197,-3.557361 -2.39227,-3.557361 -0.44737,0 -1.66073,1.361884 -1.98071,2.223193 -0.17612,0.474025 -0.23333,1.459213 -0.12713,2.189325 0.10621,0.730102 0.0489,1.716503 -0.12716,2.19201 -0.25904,0.69934 -0.52324,0.864548 -1.38267,0.864548 -0.58433,0 -1.15734,-0.09742 -1.27337,-0.216501 z"
     id="path1215" /><path
     style="opacity:1;fill:#999999;stroke:#00000d;stroke-width:0.00605735;stroke-linejoin:bevel"
     d="m 204.76638,41.19383 c -2.69696,-1.318083 -4.03589,-3.744428 -4.06021,-7.35762 -0.0178,-2.646108 0.67891,-4.342514 2.43253,-5.922912 1.47842,-1.332374 3.03475,-1.805959 5.42207,-1.64993 4.24258,0.277284 6.64618,3.074723 6.64618,7.735212 0,3.25471 -0.94593,5.251626 -3.15033,6.650518 -1.99493,1.265972 -5.30797,1.513524 -7.29024,0.544732 z m 5.74462,-2.692429 c 1.23988,-1.188777 1.69032,-2.357076 1.69032,-4.384166 0,-3.406516 -1.72279,-5.639269 -4.35125,-5.639269 -1.25521,0 -2.95942,1.220411 -3.63685,2.604407 -1.35145,2.760965 -0.21912,7.080302 2.13506,8.144381 1.09264,0.493852 3.29054,0.110879 4.16272,-0.725353 z"
     id="path1254" /></g></svg>
