<?xml version="1.0" encoding="UTF-8" standalone="no"?>
<!-- Generator: Adobe Illustrator 25.0.1, SVG Export Plug-In . SVG Version: 6.00 Build 0)  -->

<svg
   version="1.0"
   id="Layer_1"
   x="0px"
   y="0px"
   viewBox="0 0 547.59997 100"
   xml:space="preserve"
   sodipodi:docname="CoinMarketCap.svg"
   inkscape:version="1.1.1 (3bf5ae0d25, 2021-09-20)"
   width="547.59998"
   height="100"
   xmlns:inkscape="http://www.inkscape.org/namespaces/inkscape"
   xmlns:sodipodi="http://sodipodi.sourceforge.net/DTD/sodipodi-0.dtd"
   xmlns="http://www.w3.org/2000/svg"
   xmlns:svg="http://www.w3.org/2000/svg"><defs
   id="defs9" /><sodipodi:namedview
   id="namedview7"
   pagecolor="#ffffff"
   bordercolor="#999999"
   borderopacity="1"
   inkscape:pageshadow="0"
   inkscape:pageopacity="0"
   inkscape:pagecheckerboard="0"
   showgrid="false"
   inkscape:zoom="0.87719302"
   inkscape:cx="298.67999"
   inkscape:cy="11.969999"
   inkscape:window-width="1366"
   inkscape:window-height="697"
   inkscape:window-x="-8"
   inkscape:window-y="-8"
   inkscape:window-maximized="1"
   inkscape:current-layer="Layer_1"
   width="548.59998px" />
<style
   type="text/css"
   id="style2">
	.st0{fill-rule:evenodd;clip-rule:evenodd;}
</style>
<path
   class="st0"
   d="m 81.941025,60.050834 c -1.622691,1.024375 -3.569923,1.365834 -4.868078,0.341459 C 75.125716,59.367918 74.1521,56.63625 74.1521,53.221669 V 42.295001 c 0,-5.121875 -1.947231,-8.877916 -5.192616,-9.902291 -5.517156,-1.707291 -9.736158,5.463334 -11.358849,8.195 L 47.864476,57.319168 V 36.831669 c 0,-4.780416 -1.622692,-7.512084 -4.219,-8.195 -1.947231,-0.682916 -4.543539,-0.341459 -7.13985,3.756041 L 14.761543,69.270209 c -2.920847,-5.804791 -4.54354,-12.2925 -4.54354,-19.121665 0,-22.194791 16.876006,-40.2920841 37.646473,-40.2920841 20.77047,0 37.646474,18.4387501 37.646474,40.6335411 0,0 0,0 0,0 0,0 0,0 0,0 0.324538,4.438958 -0.973614,7.853542 -3.569925,9.560833 z m 12.007929,-9.560833 v 0 0 c 0,-27.316666 -20.770468,-49.169998 -46.084478,-49.169998 -25.314007,0 -46.0844752,22.194791 -46.0844752,49.169998 0,26.975208 20.7704682,49.169999 46.0844752,49.169999 11.68339,0 22.717699,-4.780416 31.480241,-13.316875 1.622693,-1.707291 1.947232,-4.438959 0.324538,-6.487709 -1.622691,-1.707291 -4.218999,-2.048748 -5.841693,-0.341457 0,0 0,0 0,0 -6.815309,6.829166 -16.226927,10.926666 -25.638545,10.926666 -11.034311,0 -21.095008,-5.121875 -28.234857,-13.316875 L 39.751014,43.660835 v 15.365624 c 0,7.512084 2.596308,9.902291 4.868078,10.585209 2.271769,0.682916 5.841694,0.341457 9.411618,-6.14625 L 64.740482,45.026669 c 0.324539,-0.682918 0.649077,-1.024375 0.973615,-1.707293 v 9.219374 c 0,6.829168 2.596309,12.2925 7.139848,15.024168 4.219002,2.390207 9.411621,2.390207 13.630622,-0.682918 5.192616,-2.390207 7.788924,-8.877916 7.464387,-16.389999 z M 158.20758,33.758544 c 0.97362,0.682916 1.94724,2.390209 1.94724,3.756041 0,2.390209 -1.94724,4.0975 -3.89446,4.0975 -0.64908,0 -0.97362,0 -1.6227,-0.341459 -2.5963,-2.04875 -5.51716,-3.073125 -8.76254,-3.073125 -7.78893,0 -12.98154,6.487709 -12.98154,14.682708 0,8.195 5.19261,14.682709 12.98154,14.682709 3.89447,0 7.13985,-1.707293 9.73616,-4.0975 0.64908,-0.341459 1.6227,-0.682918 2.27177,-0.682918 1.94723,0 3.56992,1.707293 3.56992,4.0975 0,1.365834 -0.97362,2.731668 -1.94722,3.414584 -3.56994,3.414584 -8.76255,5.463334 -13.95517,5.463334 -11.68338,0 -21.41954,-10.24375 -21.41954,-22.877709 0,-12.633958 9.73616,-22.877706 21.41954,-22.877706 5.19262,-0.341459 9.41163,1.024375 12.657,3.756041 z m 21.74409,9.560832 c 8.11346,0 14.92877,7.170625 14.92877,16.048542 0,8.877916 -6.81531,16.39 -14.92877,16.39 -8.438,0 -15.57785,-7.512084 -15.57785,-16.39 0,-8.877917 7.13985,-16.048542 15.57785,-16.048542 z m 0,24.243542 c 3.56993,0 6.49078,-3.414584 6.49078,-8.195 0,-4.780418 -2.92085,-7.853543 -6.49078,-7.853543 -3.89446,0 -7.13985,3.073125 -7.13985,7.853543 0,4.780416 3.24539,8.195 7.13985,8.195 z m 19.79685,3.073125 V 48.099794 c 0,-2.390209 1.94723,-4.438959 4.219,-4.438959 2.27177,0 4.21901,2.04875 4.21901,4.438959 v 22.536249 c 0,2.390207 -1.94724,4.438957 -4.21901,4.438957 -2.27177,0 -4.219,-2.04875 -4.219,-4.438957 z m -0.64907,-35.511665 c 0,-3.073125 2.27177,-5.121875 4.86807,-5.121875 2.59632,0 4.86809,2.390207 4.86809,5.121875 0,2.731666 -2.27177,5.121873 -4.86809,5.121873 -2.5963,0 -4.86807,-2.390207 -4.86807,-5.121873 z m 24.98946,23.219165 v 12.2925 c 0,2.390207 -1.94723,4.438957 -4.219,4.438957 -2.27177,0 -4.21899,-2.04875 -4.21899,-4.438957 V 47.075419 c 0,-2.04875 1.62268,-3.414584 3.24537,-3.414584 1.6227,0 3.24539,1.707291 3.24539,3.414584 3.24539,-3.414584 6.49077,-3.756043 9.08709,-3.756043 8.43801,0 12.00792,6.487709 12.00792,13.999792 v 13.316875 c 0,2.390207 -1.94724,4.438957 -4.21899,4.438957 -2.27177,0 -4.219,-2.04875 -4.219,-4.438957 v -12.2925 c 0,-3.756043 -0.32456,-7.170624 -5.84171,-7.170624 -3.24538,0 -4.86808,3.414581 -4.86808,7.170624 z m 46.73357,4.780416 c -0.97362,0 -1.62271,-0.341459 -2.27179,-1.024375 L 258.81454,50.83146 v 19.804583 c 0,2.390207 -1.94724,4.438957 -4.219,4.438957 -2.27177,0 -4.21899,-2.04875 -4.21899,-4.438957 V 31.368335 c 0.32453,-0.682916 0.9736,-1.024375 1.62267,-1.024375 0.64909,0 1.29817,0.682918 1.6227,1.024375 l 15.57785,18.43875 c 0.32453,0.682916 0.97362,1.024375 1.29815,1.024375 0.32456,0 0.97362,-0.341459 1.29817,-1.024375 l 15.57786,-18.43875 c 0.32452,-0.341457 0.9736,-1.024375 1.62267,-1.024375 0.64909,0 1.29817,0.341459 1.62271,1.024375 v 39.267708 c 0,2.390207 -1.94724,4.438957 -4.219,4.438957 -2.27177,0 -4.21901,-2.04875 -4.21901,-4.438957 V 50.83146 l -9.73617,11.268124 c -0.32453,0.341459 -0.97361,1.024375 -1.62267,1.024375 z m 39.91822,4.438959 c 3.89447,0 6.81533,-3.414584 6.81533,-8.195 0,-4.780418 -3.24539,-7.853543 -6.81533,-7.853543 -3.56991,0 -6.49077,3.073125 -6.49077,7.853543 0,4.438957 2.92086,8.195 6.49077,8.195 z m 9.08708,4.0975 v -1.024375 c -1.62267,3.414582 -6.81528,4.780416 -10.0607,4.780416 -7.7889,0 -13.63061,-7.512084 -13.63061,-16.39 0,-8.877915 5.84171,-16.04854 13.95517,-16.04854 1.29815,0 6.16623,0.341457 9.73614,4.780416 V 46.73396 c 0,-2.04875 1.29815,-3.414584 3.24539,-3.414584 1.6227,0 3.24538,1.707293 3.24538,3.414584 v 24.584999 c 0,2.04875 -1.62268,3.414584 -3.24538,3.414584 -1.94724,0.341457 -3.24539,-1.024375 -3.24539,-3.073125 z m 29.53303,-20.487499 h -0.97362 c -5.19262,0.341456 -6.16624,3.414581 -6.16624,7.170624 v 12.2925 c 0,2.390207 -1.94723,4.438957 -4.21899,4.438957 -2.2718,0 -4.219,-2.04875 -4.219,-4.438957 V 47.075419 c 0,-2.04875 1.62267,-3.414584 3.24538,-3.414584 1.62268,0 3.24538,1.707291 3.24538,3.414584 3.24539,-3.073125 5.51714,-3.756043 8.11347,-3.756043 h 0.97362 c 1.94723,0 3.89444,1.707293 3.89444,4.0975 -0.32453,2.04875 -1.94721,3.756043 -3.89444,3.756043 z m 32.12932,17.414374 c 0.32453,0.682916 0.64906,1.365832 0.64906,2.04875 0,2.390207 -1.94724,4.438957 -4.21901,4.438957 -1.62267,0 -2.59629,-1.024375 -3.56991,-2.390207 L 364.6141,61.075209 v 9.560834 c 0,2.390207 -1.94721,4.438957 -4.219,4.438957 -2.27177,0 -4.219,-2.04875 -4.219,-4.438957 V 34.782919 c 0,-2.390209 1.94723,-4.438959 4.219,-4.438959 2.27179,0 4.219,2.04875 4.219,4.438959 v 22.536249 l 9.73617,-11.268124 c 0.97362,-1.024375 2.27177,-2.390209 3.56991,-2.390209 1.94724,0 3.89448,2.04875 3.89448,4.438959 0,0.682916 0,1.365832 -0.64909,2.04875 l -7.46439,8.877915 7.78895,9.560834 c 0,0 0,0 0,0 z m 16.22691,-17.072918 c -2.27177,0 -5.84168,1.365834 -5.84168,5.121875 h 12.0079 c 0,-4.0975 -3.89444,-5.121875 -6.16622,-5.121875 z m 11.0343,10.585209 h -16.87598 c 0,5.121875 4.86808,6.14625 6.81528,6.14625 1.62271,0 3.89448,-0.341459 5.51718,-1.024375 0.64906,-0.341459 1.29815,-0.682916 2.27177,-0.682916 1.94722,0 3.24537,1.707291 3.24537,3.756041 0,1.365834 -0.97362,2.390209 -1.94722,3.073125 -2.5963,2.04875 -5.84168,2.390209 -9.0871,2.390209 -8.43799,0 -15.57784,-4.780418 -15.57784,-16.048543 0,-8.877915 4.219,-16.389999 14.27971,-16.389999 8.11346,0 14.27969,5.463334 14.27969,15.365624 0.32453,1.707293 -0.97362,3.414584 -2.92086,3.414584 z m 23.3668,13.316875 h -2.27177 c -6.49078,0 -10.06071,-3.073125 -10.06071,-13.316875 V 51.172919 h -2.27175 c -1.94724,0 -3.89448,-2.04875 -3.89448,-4.0975 0,-2.390209 1.62268,-4.0975 3.89448,-4.0975 h 2.27175 v -8.195 c 0,-2.390209 1.94724,-4.438959 4.21901,-4.438959 2.27176,0 4.219,2.04875 4.219,4.438959 v 8.195 h 3.56991 c 1.94724,0 3.89446,1.707291 3.89446,4.0975 0,2.04875 -1.62267,4.0975 -3.89446,4.0975 h -3.56991 v 9.219374 c 0,6.14625 0.32453,7.170625 2.92085,7.170625 h 1.29815 c 1.94724,0 3.56993,1.707291 3.56993,4.0975 -0.32456,2.04875 -1.94723,3.756041 -3.89446,3.756041 z m 40.24277,-41.657915 c 0.97362,0.682916 1.94724,2.390209 1.94724,3.756041 0,2.390209 -1.94724,4.0975 -3.89446,4.0975 -0.64909,0 -0.97362,0 -1.62271,-0.341459 -2.5963,-2.04875 -5.51715,-3.073125 -8.76252,-3.073125 -7.78895,0 -12.98156,6.487709 -12.98156,14.682708 0,8.195 5.19261,14.682709 12.98156,14.682709 3.89446,0 7.13984,-1.707293 9.73614,-4.0975 0.64909,-0.341459 1.62269,-0.682918 2.27176,-0.682918 1.94724,0 3.56994,1.707293 3.56994,4.0975 0,1.365834 -0.97362,2.731668 -1.94724,3.414584 -3.5699,3.414584 -8.76252,5.463334 -13.95514,5.463334 -11.6834,0 -21.41955,-10.24375 -21.41955,-22.877709 0,-12.633958 9.73615,-22.877706 21.41955,-22.877706 5.19262,-0.341459 9.41162,1.024375 12.65699,3.756041 z m 21.41956,33.804374 c 3.89445,0 6.81529,-3.414584 6.81529,-8.195 0,-4.780418 -3.24537,-7.853543 -6.81529,-7.853543 -3.56994,0 -6.49078,3.073125 -6.49078,7.853543 -0.32453,4.438957 2.59631,8.195 6.49078,8.195 z m 8.76253,4.0975 v -1.024375 c -1.6227,3.414582 -6.81532,4.780416 -10.0607,4.780416 -7.78892,0 -13.63062,-7.512084 -13.63062,-16.39 0,-8.877915 5.8417,-16.04854 13.95517,-16.04854 1.29815,0 6.16623,0.341457 9.73615,4.780416 V 46.73396 c 0,-2.04875 1.29814,-3.414584 3.24538,-3.414584 1.62271,0 3.24538,1.707293 3.24538,3.414584 v 24.584999 c 0,2.04875 -1.62267,3.414584 -3.24538,3.414584 C 503.84114,75.075 502.543,73.709168 502.543,71.660418 Z m 29.53302,-4.0975 c 3.56991,0 6.49076,-3.756043 6.49076,-8.195 0,-4.780418 -2.92085,-7.853543 -6.49076,-7.853543 -3.56994,0 -6.81533,3.073125 -6.81533,7.853543 -0.32453,4.780416 2.92086,8.195 6.81533,8.195 z m -7.13986,5.463332 v 11.268125 c 0,2.390209 -1.94722,4.438959 -4.21899,4.438959 -2.27179,0 -4.219,-2.04875 -4.219,-4.438959 V 47.075419 c 0,-2.04875 1.62268,-3.414584 3.24538,-3.414584 1.62268,0 3.24539,1.707291 3.24539,3.756041 3.24537,-3.414582 6.81528,-4.0975 9.73614,-4.0975 8.11346,0 13.95517,7.170625 13.95517,16.048542 0,8.877916 -5.84171,16.39 -13.63061,16.39 -2.2718,-0.341459 -5.84171,-1.024375 -8.11348,-2.731668 z"
   id="path4"
   style="fill:#999999;stroke-width:3.32891" />
</svg>
