<?xml version="1.0" encoding="UTF-8" standalone="no"?>
<!-- Generator: Adobe Illustrator 26.0.3, SVG Export Plug-In . SVG Version: 6.00 Build 0)  -->

<svg
   version="1.0"
   id="katman_1"
   x="0px"
   y="0px"
   viewBox="0 0 208 84"
   xml:space="preserve"
   sodipodi:docname="PolygonMatic.svg"
   width="208"
   height="84"
   inkscape:version="1.1.1 (3bf5ae0d25, 2021-09-20)"
   xmlns:inkscape="http://www.inkscape.org/namespaces/inkscape"
   xmlns:sodipodi="http://sodipodi.sourceforge.net/DTD/sodipodi-0.dtd"
   xmlns="http://www.w3.org/2000/svg"
   xmlns:svg="http://www.w3.org/2000/svg"><defs
   id="defs23" /><sodipodi:namedview
   id="namedview21"
   pagecolor="#ffffff"
   bordercolor="#999999"
   borderopacity="1"
   inkscape:pageshadow="0"
   inkscape:pageopacity="0"
   inkscape:pagecheckerboard="0"
   showgrid="false"
   inkscape:zoom="1.8"
   inkscape:cx="66.666667"
   inkscape:cy="11.944444"
   inkscape:window-width="1366"
   inkscape:window-height="697"
   inkscape:window-x="-8"
   inkscape:window-y="-8"
   inkscape:window-maximized="1"
   inkscape:current-layer="katman_1" />
<style
   type="text/css"
   id="style2"><![CDATA[
.st0 {
  fill:#6c6c6c;
}
]]></style>
<path
   class="st0"
   d="m 42.168035,33.109099 c -0.826842,-0.561779 -1.889923,-0.561779 -2.805353,0 l -6.408016,4.362045 -4.370445,2.841939 -6.408015,4.362045 c -0.826842,0.561779 -1.889923,0.561779 -2.805353,0 L 14.262159,41.271411 C 13.435318,40.709633 12.874247,39.652166 12.874247,38.52861 v -6.708298 c 0,-1.123558 0.502011,-2.181023 1.387912,-2.742802 l 5.020104,-3.304578 c 0.82684,-0.56178 1.889922,-0.56178 2.805352,0 l 5.020105,3.304578 c 0.826841,0.561779 1.387912,1.619244 1.387912,2.742802 v 4.362046 l 4.370444,-2.941076 v -4.362046 c 0,-1.123557 -0.502011,-2.181022 -1.387912,-2.742801 l -9.301958,-6.245657 c -0.826842,-0.561778 -1.889923,-0.561778 -2.805353,0 l -9.449608,6.245657 c -0.915431,0.561779 -1.387912,1.619244 -1.387912,2.742801 v 12.557405 c 0,1.123555 0.502011,2.181021 1.387912,2.742801 l 9.449608,6.245655 c 0.826841,0.561779 1.889921,0.561779 2.805353,0 l 6.408015,-4.262909 4.370445,-2.941074 6.408016,-4.262909 c 0.82684,-0.561779 1.88992,-0.561779 2.805353,0 l 5.020106,3.30458 c 0.82684,0.561779 1.38791,1.619244 1.38791,2.742801 v 6.708297 c 0,1.123557 -0.50201,2.181023 -1.38791,2.742801 l -5.020106,3.403718 c -0.826842,0.561778 -1.889923,0.561778 -2.805353,0 l -5.020106,-3.30458 c -0.82684,-0.561778 -1.38791,-1.619244 -1.38791,-2.742801 v -4.362045 l -4.370445,2.941076 v 4.362045 c 0,1.123557 0.502011,2.181022 1.387912,2.742801 l 9.449608,6.245655 c 0.826841,0.561778 1.889922,0.561778 2.805353,0 l 9.449609,-6.245655 c 0.826842,-0.561779 1.38791,-1.619244 1.38791,-2.742801 V 42.196693 c 0,-1.123557 -0.502012,-2.181022 -1.38791,-2.742801 z"
   id="path4"
   style="fill:#808080;stroke-width:0.312385" />






<g
   id="g836"
   transform="matrix(0.88737083,0,0,0.7998609,11.356889,8.2587002)"><path
     d="M 70.487332,60.140562 V 49.69809 c 1.004023,1.420969 2.834884,2.214068 4.931512,2.214068 5.374471,0 9.036185,-4.328999 9.036185,-10.905113 0,-6.576115 -3.336891,-10.905114 -8.593227,-10.905114 -2.421462,0 -4.28186,0.991374 -5.37447,2.643663 v -2.313205 h -5.16776 v 29.675127 h 5.16776 z m 4.311379,-13.251365 c -2.775817,0 -4.606684,-2.346252 -4.606684,-5.882152 0,-3.568947 1.830867,-5.915199 4.606684,-5.915199 2.716766,0 4.577159,2.346252 4.577159,5.915199 -0.0295,3.5359 -1.889923,5.882152 -4.577159,5.882152 z"
     id="path6"
     style="fill:#808080;stroke-width:0.312385" /><path
     d="m 96.17845,51.912158 c 5.75836,0 9.89256,-4.626412 9.89256,-10.905113 0,-6.278702 -4.1342,-10.905114 -9.89256,-10.905114 -5.75835,0 -9.89255,4.626412 -9.89255,10.905114 0,6.278701 4.1342,10.905113 9.89255,10.905113 z m 0,-5.022961 c -2.77581,0 -4.69526,-2.379299 -4.69526,-5.882152 0,-3.535901 1.88991,-5.915199 4.69526,-5.915199 2.77582,0 4.69528,2.379298 4.69528,5.915199 0,3.502853 -1.91946,5.882152 -4.69528,5.882152 z"
     id="path8"
     style="fill:#808080;stroke-width:0.312385" /><path
     d="M 114.33943,51.5817 V 21.278702 h -5.16777 V 51.5817 Z"
     id="path10"
     style="fill:#808080;stroke-width:0.312385" /><path
     d="m 129.87221,30.465434 -3.89796,13.614869 -3.92749,-13.614869 h -5.28587 l 6.7919,20.951036 -2.7463,8.724092 h 4.93152 l 2.62817,-8.624953 6.79191,-21.050175 z"
     id="path12"
     style="fill:#808080;stroke-width:0.312385" /><path
     d="m 149.71638,32.54732 c -1.03354,-1.454015 -2.89393,-2.445389 -5.16774,-2.445389 -5.46306,0 -8.77042,4.328999 -8.77042,10.905114 0,6.576114 3.30736,10.905113 8.85901,10.905113 2.18522,0 4.16373,-0.925282 5.13822,-2.478434 v 2.775846 c 0,1.982748 -1.15167,3.337626 -2.71676,3.337626 h -8.6523 v 4.56032 h 9.4496 c 4.2228,0 7.05768,-2.908031 7.05768,-7.303122 V 30.432389 h -5.19729 z m -4.28185,14.341877 c -2.74629,0 -4.57715,-2.313206 -4.57715,-5.882152 0,-3.568947 1.83086,-5.915199 4.57715,-5.915199 2.77582,0 4.60668,2.346252 4.60668,5.915199 0,3.568946 -1.83086,5.882152 -4.60668,5.882152 z"
     id="path14"
     style="fill:#808080;stroke-width:0.312385" /><path
     d="m 167.93642,51.912158 c 5.75836,0 9.89256,-4.626412 9.89256,-10.905113 0,-6.278702 -4.1342,-10.905114 -9.89256,-10.905114 -5.75836,0 -9.89256,4.626412 -9.89256,10.905114 0,6.278701 4.1342,10.905113 9.89256,10.905113 z m 0,-5.022961 c -2.77583,0 -4.69527,-2.379299 -4.69527,-5.882152 0,-3.535901 1.88992,-5.915199 4.69527,-5.915199 2.77582,0 4.69527,2.379298 4.69527,5.915199 -0.0295,3.502853 -1.91945,5.882152 -4.69527,5.882152 z"
     id="path16"
     style="fill:#808080;stroke-width:0.312385" /><path
     d="M 185.83162,51.5817 V 40.015671 c 0,-2.709756 1.59461,-4.692504 3.86843,-4.692504 2.15568,0 3.60266,1.850564 3.60266,4.395091 V 51.5817 h 5.19728 V 38.429472 c 0,-4.857732 -2.74628,-8.294496 -6.99861,-8.294496 -2.56912,0 -4.63622,1.222695 -5.6993,3.271535 v -2.941077 h -5.16775 V 51.5817 Z"
     id="path18"
     style="fill:#808080;stroke-width:0.312385" /></g>
</svg>
